<svg width="172" height="175" viewBox="0 0 172 175" fill="none" xmlns="http://www.w3.org/2000/svg">
<g clip-path="url(#clip0_594_2594)">
<path d="M137.629 104.779C137.627 106.062 137.333 107.327 136.77 108.48C136.206 109.633 135.388 110.642 134.376 111.432C132.167 113.217 129.411 114.191 126.57 114.191C123.729 114.191 120.974 113.217 118.765 111.432C117.756 110.64 116.939 109.63 116.376 108.478C115.812 107.326 115.517 106.061 115.512 104.779V94.3737H122.876V108.03C122.876 109.008 123.264 109.946 123.956 110.638C124.648 111.329 125.586 111.718 126.564 111.718C127.542 111.718 128.48 111.329 129.172 110.638C129.863 109.946 130.252 109.008 130.252 108.03V84.9312C130.252 84.4458 130.156 83.9653 129.97 83.5171C129.784 83.0689 129.511 82.6618 129.167 82.3192C128.823 81.9767 128.415 81.7053 127.966 81.5208C127.517 81.3363 127.036 81.2422 126.551 81.2439H115.493V49.2158H137.609V68.5692H130.252V51.661H122.876V78.7987H126.531C129.399 78.7274 132.192 79.7109 134.383 81.5625C135.394 82.352 136.213 83.3613 136.776 84.514C137.34 85.6666 137.633 86.9323 137.635 88.2153V104.779H137.629Z" fill="white"/>
<path d="M89.6881 80.4117V54.8868C89.6881 53.9089 89.2995 52.971 88.6079 52.2795C87.9162 51.588 86.9781 51.1995 85.9999 51.1995C85.0217 51.1995 84.0836 51.588 83.3919 52.2795C82.7003 52.971 82.3117 53.9089 82.3117 54.8868V78.4738C82.3117 80.8106 83.5411 81.979 85.9999 81.979C87.3852 81.9503 88.7061 81.389 89.6881 80.4117ZM97.0646 104.792C97.0609 106.073 96.7663 107.336 96.2028 108.486C95.6394 109.636 94.8219 110.644 93.8122 111.432C91.6026 113.217 88.8475 114.191 86.0064 114.191C83.1654 114.191 80.4102 113.217 78.2006 111.432C77.1917 110.64 76.3749 109.63 75.8117 108.478C75.2484 107.326 74.9533 106.061 74.9482 104.779V94.374H82.3247V108.031C82.3247 109.009 82.7133 109.946 83.4049 110.638C84.0966 111.329 85.0347 111.718 86.0129 111.718C86.9911 111.718 87.9292 111.329 88.6209 110.638C89.3125 109.946 89.7011 109.009 89.7011 108.031V82.8569C88.3178 84.0188 86.4422 84.6019 84.0745 84.6063C78.0033 84.6063 74.9678 81.7687 74.9678 76.0936V58.1514C74.9724 56.8718 75.2675 55.6099 75.8309 54.4609C76.3943 53.3118 77.2112 52.3057 78.2202 51.5182C80.4297 49.7328 83.1849 48.7588 86.0259 48.7588C88.867 48.7588 91.6221 49.7328 93.8317 51.5182C94.8406 52.3057 95.6575 53.3118 96.2209 54.4609C96.7843 55.6099 97.0795 56.8718 97.0841 58.1514V104.792H97.0646Z" fill="white"/>
<path d="M56.4943 113.753H34.378V96.0712C34.3562 93.1191 35.1997 90.2254 36.8043 87.7471L46.8867 73.3817C48.4452 71.0123 49.2272 68.2167 49.1244 65.3828V54.9062C49.1244 49.9118 41.7544 49.9118 41.7544 54.9062V68.5628H34.3715V58.1578C34.3597 56.8904 34.6276 55.6359 35.156 54.4838C35.6845 53.3317 36.4604 52.3102 37.4287 51.492C41.5463 47.8047 49.339 47.7852 53.4566 51.492C54.4189 52.3112 55.1897 53.3316 55.7146 54.4811C56.2394 55.6306 56.5056 56.8812 56.4943 58.1448V67.3727C56.519 70.3065 55.692 73.1845 54.1135 75.6578L43.9595 90.0818C42.3854 92.3059 41.7479 95.0437 41.7479 98.1002V111.308H49.1179V94.3999H56.4943V113.753Z" fill="white"/>
<path fill-rule="evenodd" clip-rule="evenodd" d="M34.3716 34.0049H137.629V41.3795H34.3716V34.0049Z" fill="white"/>
<path d="M31.6134 139.629H26.5201V140.325C27.8991 140.403 28.3675 140.819 28.4716 141.509C28.6404 142.394 28.7145 143.294 28.6927 144.195V146.217C28.6927 149.534 27.652 151.42 25.1411 151.42C22.923 151.42 21.8041 149.579 21.8041 146.601V142.497C21.8041 140.585 22.0188 140.462 23.5344 140.332V139.636H17.4004V140.332C18.916 140.462 19.1242 140.585 19.1242 142.497V147.049C19.1242 149.358 19.7096 150.867 20.8609 151.758C21.9221 152.468 23.1823 152.821 24.4581 152.766C25.8484 152.792 27.1945 152.277 28.2114 151.329C29.3757 150.138 29.7075 148.493 29.7075 146.354V144.208C29.6862 143.313 29.745 142.419 29.8831 141.535C29.9937 140.832 30.5336 140.397 31.6134 140.338V139.642V139.629Z" fill="white"/>
<path d="M46.8802 139.629H41.9626V140.325C43.4457 140.403 43.862 140.754 43.9596 141.626C44.0714 142.706 44.1257 143.791 44.1222 144.877V148.337H44.0702L36.1408 139.629H32.394V140.325C32.7068 140.308 33.0194 140.361 33.3095 140.479C33.5996 140.597 33.8601 140.778 34.0723 141.008C34.4626 141.483 34.5016 141.834 34.5016 143.122V147.238C34.5147 148.325 34.4473 149.412 34.3 150.49C34.2154 151.355 33.734 151.667 32.6282 151.79V152.48H37.5719V151.79C36.0693 151.712 35.718 151.335 35.6204 150.425C35.4994 149.376 35.445 148.32 35.4578 147.264V142.796H35.4968L44.1157 152.701H45.0784V144.897C45.0639 143.809 45.1335 142.722 45.2866 141.645C45.3776 140.683 45.8069 140.429 46.8802 140.345V139.649V139.629Z" fill="white"/>
<path d="M54.0743 152.454V151.764C52.5652 151.615 52.3896 151.511 52.3896 149.813V142.27C52.3896 140.586 52.5652 140.462 54.0743 140.319V139.623H48.0054V140.319C49.5145 140.449 49.7161 140.573 49.7161 142.27V149.813C49.7161 151.517 49.5145 151.621 48.0054 151.764V152.454H54.0743Z" fill="white"/>
<path d="M69.2176 139.63H64.443V140.351C66.1278 140.566 66.1148 140.833 65.6529 142.211C65.1 143.844 64.3195 145.912 63.1031 149.098H63.038C62.3355 147.342 60.7288 143.33 60.0913 141.646C59.7856 140.82 59.7401 140.579 61.2557 140.345V139.623H55.2192V140.345C56.4747 140.449 56.8129 140.774 57.4309 142.296C58.283 144.318 60.1889 149.072 61.5874 152.701H62.6022C64.1959 148.61 66.0432 144.143 66.6937 142.654C67.5068 140.781 67.8841 140.507 69.2176 140.377V139.656V139.63Z" fill="white"/>
<path d="M80.2625 148.981C79.9929 149.689 79.6083 150.348 79.1242 150.932C78.6559 151.445 77.8948 151.55 76.8931 151.55C76.2689 151.593 75.6419 151.529 75.0392 151.361C74.6229 151.185 74.5513 150.678 74.5513 149.729V146.379H75.9303C77.6346 146.379 77.9208 146.464 78.1745 147.882H78.8965V143.869H78.1745C77.9208 145.248 77.6346 145.365 75.9303 145.365H74.5513V141.177C74.5513 140.527 74.6034 140.494 75.3904 140.494H76.4182C77.4915 140.494 78.0314 140.637 78.3696 140.988C78.7836 141.485 79.0675 142.078 79.1958 142.712L79.9243 142.621C79.8462 141.32 79.7487 139.967 79.7357 139.616H70.2061V140.306C71.6632 140.423 71.8518 140.52 71.8518 142.256V149.761C71.8518 151.465 71.6632 151.576 69.9004 151.712V152.408H80.256C80.4121 151.823 80.835 150.002 80.9651 149.091L80.256 148.935L80.2625 148.981Z" fill="white"/>
<path d="M94.4756 151.959C94.0101 151.806 93.596 151.527 93.2787 151.153C92.7047 150.477 92.1849 149.758 91.7241 149C91.1191 148.097 90.3776 146.796 90.0849 146.224C91.3858 145.71 92.5892 144.76 92.5892 143.005C92.6062 142.488 92.493 141.975 92.2599 141.514C92.0269 141.053 91.6816 140.657 91.2557 140.364C90.4361 139.818 89.4084 139.629 87.5805 139.629H81.9604V140.325C83.4305 140.442 83.6321 140.67 83.6321 142.276V149.813C83.6321 151.446 83.3784 151.621 81.8823 151.764V152.454H87.9578V151.764C86.4357 151.602 86.234 151.426 86.234 149.813V146.971H86.6243C86.9073 146.954 87.1888 147.023 87.4316 147.17C87.6744 147.316 87.867 147.533 87.9838 147.791C88.5758 148.851 89.1092 149.898 89.6361 150.711C90.4427 151.946 91.2297 152.512 93.7861 152.662H94.326L94.4496 152.011L94.4756 151.959ZM86.2601 146.185V141.353C86.2601 140.956 86.2601 140.741 86.4357 140.624C86.7139 140.441 87.0482 140.363 87.3789 140.403C88.5237 140.403 89.7727 141.177 89.7727 143.291C89.8011 143.733 89.7279 144.177 89.5588 144.587C89.3897 144.997 89.1291 145.364 88.7969 145.658C88.1985 146.066 87.4759 146.253 86.7544 146.185H86.2601Z" fill="white"/>
<path d="M103.426 142.705C103.277 141.444 103.127 140.566 103.062 139.85C102.153 139.526 101.198 139.35 100.233 139.33C97.4355 139.33 95.6467 141.001 95.6467 143.199C95.6467 145.092 97.0387 146.158 99.1332 147.186C100.636 147.94 101.534 148.669 101.534 149.833C101.555 150.107 101.518 150.382 101.425 150.641C101.333 150.9 101.186 151.136 100.996 151.334C100.805 151.533 100.575 151.689 100.32 151.792C100.066 151.895 99.7918 151.943 99.517 151.933C97.6111 151.933 96.3752 149.657 95.9979 148.395L95.2954 148.617C95.4034 149.762 95.6014 150.897 95.8873 152.011C96.2808 152.192 96.6874 152.342 97.1037 152.46C97.7617 152.659 98.4459 152.757 99.1332 152.753C102.047 152.753 104.018 150.977 104.018 148.708C104.018 146.757 102.587 145.645 100.46 144.65C98.6649 143.785 97.9364 143.167 97.9364 142.048C97.9279 141.787 97.9739 141.526 98.0715 141.283C98.169 141.04 98.316 140.819 98.5031 140.636C98.6902 140.453 98.9134 140.31 99.1584 140.217C99.4035 140.125 99.6652 140.084 99.9268 140.097C101.534 140.097 102.347 141.58 102.737 142.816L103.426 142.673V142.705Z" fill="white"/>
<path d="M111.284 152.454V151.764C109.768 151.615 109.599 151.511 109.599 149.813V142.27C109.599 140.586 109.768 140.462 111.284 140.319V139.623H105.208V140.319C106.724 140.449 106.926 140.573 106.926 142.27V149.813C106.926 151.517 106.724 151.621 105.208 151.764V152.454H111.284Z" fill="white"/>
<path d="M112.943 139.636V140.325C114.374 140.455 114.575 140.579 114.575 142.276V149.813C114.575 151.517 114.374 151.628 112.767 151.764V152.46H118.049C120.579 152.46 122.726 151.914 124.242 150.821C125.079 150.223 125.756 149.426 126.21 148.502C126.664 147.578 126.881 146.556 126.843 145.528C126.857 144.736 126.702 143.951 126.388 143.224C126.073 142.497 125.608 141.846 125.022 141.314C123.721 140.123 121.718 139.642 119.168 139.642L112.943 139.636ZM117.249 141.873C117.193 141.486 117.268 141.092 117.464 140.754C117.871 140.511 118.345 140.406 118.817 140.455C119.445 140.426 120.072 140.522 120.663 140.737C121.254 140.953 121.796 141.283 122.258 141.71C122.784 142.275 123.193 142.939 123.459 143.664C123.725 144.389 123.843 145.16 123.806 145.931C123.806 149.332 121.919 151.569 119.057 151.569C117.535 151.569 117.249 151.088 117.249 149.657V141.853V141.873Z" fill="white"/>
<path d="M139.645 152.453V151.764C138.344 151.602 138.077 151.328 137.407 149.579C136.106 146.204 134.805 142.77 133.504 139.33L132.47 139.584L128.327 149.651C127.676 151.361 127.436 151.602 126.063 151.764V152.453H130.584V151.764C129.114 151.576 129.068 151.289 129.374 150.385C129.68 149.482 129.881 148.851 130.115 148.2H134.018C134.357 149.052 134.669 149.911 134.87 150.489C135.163 151.328 135.085 151.563 133.882 151.79V152.479L139.645 152.453ZM133.648 147.147H130.46C130.974 145.749 131.514 144.318 132.08 142.9H132.138L133.648 147.147Z" fill="white"/>
<path d="M140.719 139.636V140.325C142.15 140.455 142.358 140.579 142.358 142.276V149.813C142.358 151.517 142.15 151.628 140.543 151.764V152.46H145.825C148.362 152.46 150.508 151.914 152.017 150.821C152.855 150.222 153.531 149.425 153.985 148.502C154.439 147.578 154.657 146.556 154.619 145.528C154.632 144.736 154.476 143.95 154.16 143.223C153.845 142.497 153.379 141.846 152.792 141.314C151.491 140.123 149.487 139.642 146.937 139.642L140.719 139.636ZM145.025 141.873C144.97 141.486 145.048 141.091 145.246 140.754C145.65 140.511 146.123 140.406 146.592 140.455C147.221 140.426 147.848 140.522 148.439 140.737C149.03 140.953 149.572 141.283 150.033 141.71C150.558 142.275 150.964 142.94 151.226 143.665C151.489 144.39 151.603 145.161 151.562 145.931C151.562 149.332 149.676 151.569 146.814 151.569C145.291 151.569 145.005 151.088 145.005 149.657V141.853L145.025 141.873Z" fill="white"/>
<path d="M0.201649 159.808V160.628C1.87338 160.784 2.10756 160.921 2.10756 162.891V171.683C2.10756 173.667 1.87338 173.79 0 173.966V174.772H6.14704C9.10022 174.772 11.6046 174.122 13.3609 172.86C14.3312 172.161 15.1135 171.233 15.6378 170.159C16.1622 169.084 16.4124 167.897 16.3661 166.702C16.381 165.78 16.1996 164.865 15.834 164.019C15.4684 163.172 14.9269 162.413 14.2455 161.792C12.7039 160.407 10.3947 159.841 7.4545 159.841L0.201649 159.808ZM5.22336 162.41C5.22336 161.759 5.26889 161.324 5.47704 161.109C5.9461 160.821 6.49764 160.698 7.0447 160.758C7.77765 160.725 8.50976 160.839 9.19867 161.091C9.88758 161.343 10.5196 161.73 11.0582 162.228C11.6708 162.883 12.1459 163.655 12.4553 164.497C12.7648 165.339 12.9024 166.235 12.86 167.131C12.86 171.091 10.6549 173.699 7.32441 173.699C5.5551 173.699 5.22336 173.133 5.22336 171.469V162.416V162.41ZM29.792 170.688C29.491 171.521 29.0511 172.298 28.491 172.984C27.9446 173.589 27.06 173.712 25.8891 173.712C25.1641 173.762 24.4359 173.687 23.736 173.491C23.2482 173.29 23.1636 172.691 23.1636 171.586V167.684H24.7768C26.7282 167.684 27.0925 167.781 27.3787 169.433H28.2178V164.764H27.3657C27.073 166.364 26.7152 166.507 24.7638 166.507H23.1441V161.629C23.1441 160.875 23.2091 160.829 24.1198 160.829H25.3167C26.5721 160.829 27.1966 160.999 27.6129 161.408C28.0977 161.987 28.4307 162.678 28.5821 163.418L29.4277 163.307C29.3367 161.818 29.2261 160.218 29.2066 159.808H18.0833V160.628C19.7811 160.771 20.0023 160.882 20.0023 162.924V171.683C20.0023 173.667 19.7811 173.79 17.7386 173.966V174.772H29.792C29.9806 174.089 30.4425 171.969 30.6246 170.909L29.792 170.721V170.688ZM49.3064 170.532C49.0045 171.407 48.5534 172.224 47.9729 172.945C47.42 173.556 46.5549 173.712 45.5466 173.712C44.9448 173.747 44.3414 173.688 43.7578 173.537C43.2699 173.335 43.1854 172.945 43.1854 171.852V162.871C43.1854 160.921 43.4065 160.764 45.2149 160.608V159.802H37.975V160.628C39.7964 160.784 40.0501 160.921 40.0501 162.891V171.651C40.0501 173.66 39.7964 173.784 37.7018 173.953V174.759H49.2348C49.404 174.109 49.8853 171.813 50.0935 170.805L49.2804 170.552L49.3064 170.532ZM66.9865 174.74V173.933C65.4838 173.745 65.1651 173.433 64.3845 171.391C62.8494 167.489 61.3793 163.457 59.8767 159.451L58.6668 159.75L53.8402 171.456C53.0597 173.446 52.806 173.732 51.2383 173.914V174.72H56.5072V173.914C54.79 173.699 54.7444 173.361 55.0957 172.308C55.3559 171.371 55.6876 170.519 55.9543 169.765H60.5077C60.9045 170.753 61.2622 171.755 61.4964 172.431C61.8412 173.413 61.7501 173.68 60.3516 173.914V174.72L66.9865 174.74ZM59.9743 168.562H56.2665C56.865 166.929 57.4894 165.265 58.1529 163.613H58.218L59.9743 168.562ZM91.49 159.802H84.4128V160.628C86.2212 160.784 86.3643 160.921 86.3643 162.884V166.227H79.7359V162.884C79.7359 160.934 79.905 160.784 81.6483 160.628V159.821H74.5776V160.628C76.3989 160.784 76.6201 160.921 76.6201 162.884V171.683C76.6201 173.667 76.3989 173.797 74.6686 173.966V174.772H81.6613V173.966C79.8985 173.797 79.7098 173.667 79.7098 171.683V167.43H86.3512V171.683C86.3512 173.667 86.1951 173.797 84.2827 173.966V174.772H91.49V173.966C89.6817 173.797 89.4996 173.667 89.4996 171.683V162.865C89.4996 160.914 89.6102 160.764 91.451 160.608V159.802H91.49ZM107.791 174.759V173.953C106.282 173.764 105.963 173.452 105.189 171.41C103.648 167.508 102.184 163.476 100.675 159.47L99.4649 159.769L94.6449 171.475C93.8578 173.465 93.6106 173.751 92.0104 173.933L91.9779 174.74H97.2403V173.933C95.5295 173.719 95.484 173.381 95.8288 172.327C96.0954 171.391 96.4272 170.539 96.6939 169.784H101.247C101.644 170.773 102.008 171.774 102.242 172.451C102.587 173.433 102.496 173.699 101.091 173.933V174.74L107.791 174.759ZM100.824 168.562H97.1167C97.7086 166.929 98.3396 165.265 98.9966 163.613H99.0616L100.824 168.562ZM117.737 166.611C119.428 166.292 121.425 165.427 121.425 163.197C121.432 162.68 121.307 162.17 121.063 161.715C120.818 161.26 120.461 160.875 120.027 160.595C119.129 160.023 117.971 159.802 116.169 159.802H109.281V160.628C110.926 160.784 111.161 160.921 111.161 162.891V171.664C111.161 173.615 110.926 173.764 109.125 173.94V174.753H115.135C116.834 174.819 118.524 174.48 120.066 173.764C120.717 173.459 121.269 172.976 121.657 172.371C122.045 171.766 122.253 171.063 122.258 170.344C122.258 168.146 120.469 167.092 117.704 166.773V166.656L117.737 166.611ZM114.244 166.344V162.013C114.2 161.674 114.273 161.329 114.452 161.038C114.77 160.831 115.146 160.728 115.525 160.745C116.826 160.745 118.075 161.525 118.075 163.613C118.075 165.479 117.034 166.344 114.764 166.344H114.244ZM114.244 167.281H114.699C117.431 167.281 118.817 168.38 118.817 170.532C118.817 172.685 117.321 173.699 116.013 173.712C114.706 173.725 114.244 173.257 114.244 171.534V167.281ZM138.702 174.714V173.907C137.193 173.719 136.874 173.407 136.1 171.365C134.558 167.463 133.095 163.431 131.586 159.425L130.376 159.724L125.556 171.43C124.769 173.42 124.521 173.699 122.921 173.888V174.694H128.145V173.888C126.434 173.667 126.388 173.335 126.733 172.282C127 171.345 127.332 170.493 127.598 169.739H132.152C132.548 170.727 132.913 171.729 133.147 172.405C133.492 173.387 133.4 173.654 131.995 173.888V174.694L138.702 174.714ZM131.716 168.536H128.008C128.6 166.903 129.231 165.239 129.888 163.587H129.953L131.716 168.536ZM156.434 159.776H150.71V160.628C152.434 160.719 152.921 161.135 153.038 162.169C153.084 162.819 153.227 163.886 153.227 165.928V169.96H153.162L143.925 159.821H139.567V160.628C140.543 160.719 141.076 160.882 141.518 161.428C141.961 161.974 142.019 162.39 142.019 163.886V168.685C142.034 169.949 141.956 171.212 141.785 172.464C141.688 173.465 141.135 173.829 139.834 173.953V174.759H145.59V173.953C143.847 173.862 143.437 173.426 143.327 172.366C143.185 171.144 143.122 169.915 143.138 168.685V163.483H143.19L153.227 175.026H154.326V165.921C154.309 164.649 154.39 163.377 154.567 162.117C154.678 161.005 155.179 160.706 156.421 160.628V159.821L156.434 159.776ZM172.046 174.733V173.927C170.536 173.738 170.218 173.426 169.444 171.384C167.902 167.482 166.438 163.45 164.929 159.444L163.719 159.743L158.899 171.449C158.112 173.439 157.865 173.719 156.297 173.907L156.265 174.714H161.527V173.907C159.816 173.686 159.771 173.355 160.116 172.301C160.382 171.365 160.714 170.513 160.981 169.758H165.534C165.931 170.747 166.295 171.748 166.529 172.425C166.874 173.407 166.783 173.673 165.378 173.907V174.714L172.046 174.733ZM165.059 168.555H161.319C161.911 166.923 162.542 165.258 163.199 163.606H163.264L165.059 168.555Z" fill="white"/>
<path d="M40.1997 132.326V131.747C39.1199 131.617 38.8987 131.39 38.3328 129.926C37.227 127.104 36.1797 124.236 35.0804 121.362L34.2153 121.576L30.7677 129.985C30.2083 131.409 30.0262 131.617 28.8813 131.747V132.326H32.6606V131.747C31.4312 131.591 31.3987 131.351 31.6459 130.596C31.8931 129.842 32.0752 129.296 32.2964 128.769H35.5488C35.8285 129.484 36.0887 130.2 36.2578 130.681C36.505 131.39 36.4399 131.578 35.4317 131.747V132.326H40.1997ZM35.191 127.891H32.524C32.9534 126.727 33.4022 125.53 33.877 124.347H33.9226L35.191 127.891ZM52.9101 121.609H48.786V122.188C50.022 122.253 50.3732 122.545 50.4578 123.287C50.4903 123.761 50.5879 124.522 50.5879 125.986V128.873H50.5423L43.94 121.609H40.8177V122.188C41.0778 122.172 41.3381 122.216 41.5792 122.315C41.8202 122.414 42.0358 122.566 42.2097 122.76C42.5414 123.157 42.574 123.449 42.574 124.522V127.963C42.585 128.869 42.5284 129.776 42.4048 130.674C42.3333 131.39 41.93 131.656 41.0063 131.741V132.32H45.1368V131.741C43.8814 131.676 43.5887 131.364 43.5106 130.603C43.4068 129.727 43.3612 128.845 43.374 127.963V124.23L50.5749 132.502H51.388V125.999C51.3776 125.085 51.4341 124.172 51.5571 123.267C51.6417 122.467 51.9994 122.253 52.8581 122.201V121.609H52.9101ZM58.9205 132.32V131.741C57.6586 131.617 57.5155 131.533 57.5155 130.109V123.807C57.5155 122.396 57.6586 122.298 58.9205 122.188V121.609H53.8468V122.188C55.1087 122.298 55.2843 122.396 55.2843 123.807V130.109C55.2843 131.533 55.1087 131.617 53.8468 131.741V132.32H58.9205ZM71.5529 121.609H67.5589V122.207C68.9704 122.389 68.9574 122.61 68.5737 123.761C68.1118 125.127 67.4548 126.85 66.4466 129.517H66.388C65.8026 128.047 64.4366 124.698 63.9292 123.287C63.669 122.597 63.6365 122.396 64.8984 122.207V121.609H59.8767V122.207C60.924 122.298 61.1777 122.565 61.7241 123.833C62.4396 125.524 64.0268 129.491 65.1977 132.502H66.0433C67.3442 129.088 68.9184 125.348 69.4648 124.113C70.1153 122.545 70.4535 122.318 71.5724 122.207V121.609H71.5529ZM80.7767 129.413C80.5514 130.011 80.2307 130.569 79.827 131.065C79.4367 131.494 78.7992 131.578 77.9601 131.578C77.4389 131.612 76.9158 131.56 76.4119 131.422C76.0607 131.279 76.0086 130.85 76.0086 130.057V127.26H77.16C78.5845 127.26 78.8252 127.332 79.0334 128.515H79.6383V125.166H79.0334C78.8252 126.311 78.5845 126.415 77.16 126.415H76.0086V122.91C76.0086 122.37 76.0542 122.337 76.7047 122.337H77.5633C78.461 122.337 78.9098 122.461 79.209 122.753C79.5569 123.167 79.7961 123.661 79.905 124.191L80.51 124.113C80.4449 123.046 80.3669 121.895 80.3539 121.602H72.3985V122.181C73.6149 122.279 73.771 122.357 73.771 123.827V130.096C73.771 131.52 73.6149 131.611 72.1448 131.734V132.313H80.7962C80.9263 131.819 81.2775 130.304 81.3881 129.543L80.7962 129.406L80.7767 129.413ZM92.6544 131.903C92.2669 131.779 91.9191 131.555 91.6462 131.253C91.1665 130.687 90.7315 130.085 90.3452 129.452C89.8379 128.697 89.2199 127.611 88.9727 127.13C90.085 126.707 91.0673 125.914 91.0673 124.444C91.0819 124.012 90.987 123.584 90.7914 123.198C90.5958 122.813 90.3058 122.483 89.9484 122.24C89.298 121.785 88.4068 121.628 86.8847 121.628H82.2142V122.207C83.4371 122.305 83.6063 122.493 83.6063 123.82V130.115C83.6063 131.481 83.3981 131.63 82.1492 131.76V132.339H87.2229V131.76C85.922 131.63 85.7789 131.481 85.7789 130.128V127.741H86.1041C86.3414 127.727 86.5774 127.786 86.7808 127.909C86.9841 128.032 87.1451 128.214 87.2424 128.431C87.7368 129.315 88.1791 130.193 88.6215 130.876C89.2719 131.903 89.9224 132.372 92.0885 132.476H92.5439L92.6479 131.91L92.6544 131.903ZM85.7854 127.078V123.046C85.7854 122.714 85.8179 122.532 85.9285 122.435C86.1646 122.286 86.4445 122.222 86.7221 122.253C87.6783 122.253 88.719 122.903 88.719 124.665C88.7395 125.031 88.677 125.396 88.5362 125.734C88.3954 126.072 88.1799 126.374 87.9059 126.616C87.4057 126.955 86.8031 127.109 86.2017 127.052L85.7854 127.078ZM100.174 124.21C100.044 123.163 99.9203 122.428 99.8683 121.83C99.1074 121.559 98.308 121.412 97.5005 121.394C95.1653 121.394 93.6692 122.793 93.6692 124.646C93.6692 126.226 94.8335 127.117 96.5833 127.976C97.8388 128.626 98.5868 129.218 98.5868 130.187C98.6085 130.416 98.5807 130.647 98.5051 130.865C98.4296 131.082 98.3081 131.281 98.1489 131.448C97.9897 131.614 97.7966 131.745 97.5826 131.83C97.3686 131.915 97.1387 131.954 96.9086 131.942C95.3149 131.942 94.3066 130.037 93.9619 128.99L93.3765 129.172C93.4669 130.129 93.6344 131.077 93.8773 132.007C94.2033 132.159 94.5403 132.285 94.8856 132.385C95.4364 132.549 96.0086 132.63 96.5833 132.625C99.0226 132.625 100.668 131.143 100.668 129.25C100.668 127.618 99.4715 126.694 97.6891 125.855C96.193 125.134 95.5881 124.62 95.5881 123.716C95.5806 123.497 95.6186 123.28 95.6997 123.076C95.7807 122.873 95.9031 122.689 96.059 122.536C96.2149 122.382 96.401 122.263 96.6055 122.185C96.8099 122.107 97.0283 122.073 97.2468 122.084C98.5868 122.084 99.2633 123.319 99.5951 124.353L100.174 124.21ZM112.897 132.359V131.78C111.818 131.65 111.596 131.422 111.031 129.959C109.925 127.137 108.871 124.269 107.778 121.394L106.913 121.609L103.426 129.985C102.867 131.409 102.685 131.617 101.533 131.747V132.326H105.306V131.747C104.083 131.591 104.044 131.351 104.298 130.596C104.552 129.842 104.721 129.296 104.916 128.769H108.168C108.455 129.484 108.715 130.2 108.884 130.681C109.131 131.39 109.066 131.578 108.058 131.747V132.326L112.897 132.359ZM107.889 127.924H105.228C105.658 126.759 106.106 125.563 106.581 124.379H106.627L107.889 127.924ZM124.346 131.942C123.96 131.818 123.615 131.594 123.344 131.292C122.864 130.726 122.429 130.124 122.043 129.491C121.536 128.736 120.918 127.65 120.671 127.169C121.783 126.746 122.765 125.953 122.765 124.483C122.782 124.048 122.688 123.614 122.491 123.225C122.294 122.836 122.001 122.504 121.64 122.259C120.989 121.804 120.098 121.648 118.576 121.648H113.899V122.227C115.129 122.324 115.298 122.519 115.298 123.84V130.135C115.298 131.5 115.09 131.65 113.834 131.78V132.359H118.914V131.78C117.613 131.65 117.47 131.5 117.47 130.148V127.767H117.795C118.032 127.753 118.268 127.81 118.471 127.932C118.674 128.054 118.836 128.235 118.934 128.45C119.428 129.335 119.871 130.213 120.306 130.895C120.957 131.923 121.607 132.391 123.78 132.495H124.229L124.333 131.929L124.346 131.942ZM117.483 127.117V123.085C117.483 122.753 117.516 122.571 117.626 122.474C117.849 122.32 118.117 122.245 118.387 122.259C119.344 122.259 120.384 122.91 120.384 124.672C120.405 125.037 120.342 125.403 120.202 125.741C120.061 126.078 119.845 126.38 119.571 126.623C119.071 126.962 118.468 127.116 117.867 127.059L117.483 127.117ZM130.096 132.326V131.747C128.834 131.624 128.691 131.539 128.691 130.115V123.814C128.691 122.402 128.834 122.305 130.096 122.194V121.609H125.022V122.188C126.323 122.298 126.46 122.396 126.46 123.807V130.109C126.46 131.533 126.291 131.617 125.022 131.741V132.32L130.096 132.326ZM137.401 121.362C133.498 121.362 131.312 124.1 131.312 126.974C131.312 130.141 133.752 132.58 137.167 132.58C140.419 132.58 143.138 130.414 143.138 126.837C143.138 123.586 140.536 121.362 137.394 121.362H137.401ZM137.082 122.071C139.118 122.071 140.595 124.022 140.595 127.273C140.595 130.317 139.177 131.825 137.512 131.825C135.267 131.825 133.875 129.458 133.875 126.623C133.875 123.709 135.332 122.012 137.069 122.012L137.082 122.071Z" fill="white"/>
<path fill-rule="evenodd" clip-rule="evenodd" d="M86.1173 0L34.3716 18.7876V26.6304L86.1173 7.84931L137.629 26.6304V18.7876L86.1173 0Z" fill="white"/>
</g>
<defs>
<clipPath id="clip0_594_2594">
<rect width="172" height="175" fill="white"/>
</clipPath>
</defs>
</svg>
